<?xml version="1.0" standalone="no"?>
<!DOCTYPE svg PUBLIC "-//W3C//DTD SVG 20010904//EN"
 "http://www.w3.org/TR/2001/REC-SVG-20010904/DTD/svg10.dtd">
<svg version="1.0" xmlns="http://www.w3.org/2000/svg"
 width="502.000000pt" height="980.000000pt" viewBox="0 0 502.000000 980.000000"
 preserveAspectRatio="xMidYMid meet">

<g transform="translate(0.000000,980.000000) scale(0.100000,-0.100000)"
fill="#fff" stroke="none">
<path d="M4043 9785 c-71 -19 -126 -48 -175 -93 -23 -20 -881 -1037 -1907
-2260 -1508 -1795 -1874 -2237 -1906 -2298 l-40 -77 0 -157 0 -157 40 -77 c32
-61 395 -498 1885 -2273 1015 -1209 1866 -2220 1892 -2248 139 -149 361 -188
531 -92 70 39 503 374 544 421 19 23 49 70 66 106 59 123 47 303 -27 418 -13
20 -751 907 -1640 1969 l-1616 1933 1617 1934 c1312 1569 1626 1950 1658 2012
40 76 40 77 40 188 -1 128 -18 186 -83 271 -40 52 -467 392 -553 439 -96 53
-222 69 -326 41z"/>
</g> 
</svg>
